<svg width="65" height="59" viewBox="0 0 65 59" fill="none" xmlns="http://www.w3.org/2000/svg">
<ellipse cx="47.9961" cy="37.1712" rx="1" ry="2.05198" transform="rotate(86.5575 47.9961 37.1712)" fill="#EAFF00"/>
<path fill-rule="evenodd" clip-rule="evenodd" d="M53.0501 6.07352C51.7725 2.1163 47.6763 -0.202378 43.626 0.738967L33.6255 3.06316C32.2401 3.38514 30.7939 3.33195 29.436 2.90908L21.2682 0.365661C16.4994 -1.11933 11.5509 2.08031 10.9482 7.03846L10.3284 12.1368C10.0783 14.1942 9.03942 16.0743 7.43065 17.381L2.95653 21.0151C-0.367903 23.7154 -0.975983 28.5549 1.57708 31.9936L8.21792 40.9383C8.7433 41.646 9.14813 42.4356 9.41606 43.2752L12.2006 52.0016C13.3647 55.6494 16.9503 57.961 20.7533 57.5152L33.188 56.0578C34.388 55.9171 35.6043 56.0501 36.7455 56.4467L41.2892 58.0258C46.4442 59.8173 51.8402 56.0351 51.9146 50.5782L51.9662 46.8004C52.0064 43.8495 53.668 41.1604 56.2891 39.8042L60.5422 37.6037C65.1176 35.2363 66.2954 29.2246 62.9515 25.3057L58.0481 19.559C57.3637 18.757 56.8447 17.8275 56.5207 16.8241L53.0501 6.07352ZM32.3937 38.0501C38.1927 38.0501 42.8937 33.3491 42.8937 27.5501C42.8937 21.7511 38.1927 17.0501 32.3937 17.0501C26.5947 17.0501 21.8937 21.7511 21.8937 27.5501C21.8937 33.3491 26.5947 38.0501 32.3937 38.0501Z" fill="#FF9EC0"/>
<ellipse cx="53.8261" cy="35.7004" rx="1" ry="1.06649" transform="rotate(21.2747 53.8261 35.7004)" fill="#FB00FF"/>
<ellipse cx="14.5209" cy="22.5498" rx="0.824614" ry="2.36175" transform="rotate(21.2747 14.5209 22.5498)" fill="#EAFF00"/>
<ellipse cx="42.8904" cy="11.3915" rx="0.603098" ry="1.20502" transform="rotate(21.2747 42.8904 11.3915)" fill="#FFF3F3"/>
<ellipse cx="46.1102" cy="19.5498" rx="1.19068" ry="2.05581" transform="rotate(99.0748 46.1102 19.5498)" fill="#EAFF00"/>
<ellipse cx="37.7341" cy="47.1194" rx="0.449487" ry="2.23714" transform="rotate(161.814 37.7341 47.1194)" fill="#EAFF00"/>
<ellipse cx="13.0705" cy="33.8438" rx="0.66929" ry="1.49413" transform="rotate(47.7523 13.0705 33.8438)" fill="#6AD7FF"/>
<ellipse cx="44.9172" cy="39.7476" rx="0.993996" ry="0.993551" transform="rotate(47.7523 44.9172 39.7476)" fill="#90FF90"/>
<ellipse cx="34.2154" cy="11.2897" rx="0.993996" ry="2.23714" transform="rotate(47.7523 34.2154 11.2897)" fill="#EAFF00"/>
<ellipse cx="29.8326" cy="44.5837" rx="0.993996" ry="2.23714" transform="rotate(47.7523 29.8326 44.5837)" fill="#FF0066"/>
<ellipse cx="49.8929" cy="27.6535" rx="1" ry="3" transform="rotate(53.012 49.8929 27.6535)" fill="#7FB7FF"/>
<ellipse cx="19.9741" cy="43.4648" rx="1" ry="3" transform="rotate(-9.19093 19.9741 43.4648)" fill="#FEFFEF"/>
<ellipse cx="20.7671" cy="13.2124" rx="1" ry="3" transform="rotate(-17.9627 20.7671 13.2124)" fill="#96FF8D"/>
</svg>
