<svg width="20" height="20" viewBox="0 0 20 20" fill="none" xmlns="http://www.w3.org/2000/svg">
<path d="M9.9974 14.1667C10.2335 14.1667 10.4314 14.0869 10.5911 13.9272C10.7509 13.7674 10.8307 13.5695 10.8307 13.3334C10.8307 13.0973 10.7509 12.8994 10.5911 12.7397C10.4314 12.5799 10.2335 12.5001 9.9974 12.5001C9.76129 12.5001 9.56337 12.5799 9.40365 12.7397C9.24392 12.8994 9.16406 13.0973 9.16406 13.3334C9.16406 13.5695 9.24392 13.7674 9.40365 13.9272C9.56337 14.0869 9.76129 14.1667 9.9974 14.1667ZM9.9974 10.8334C10.2335 10.8334 10.4314 10.7536 10.5911 10.5938C10.7509 10.4341 10.8307 10.2362 10.8307 10.0001V6.66675C10.8307 6.43064 10.7509 6.23272 10.5911 6.073C10.4314 5.91328 10.2335 5.83342 9.9974 5.83342C9.76129 5.83342 9.56337 5.91328 9.40365 6.073C9.24392 6.23272 9.16406 6.43064 9.16406 6.66675V10.0001C9.16406 10.2362 9.24392 10.4341 9.40365 10.5938C9.56337 10.7536 9.76129 10.8334 9.9974 10.8334ZM9.9974 18.3334C8.84462 18.3334 7.76129 18.1147 6.7474 17.6772C5.73351 17.2397 4.85156 16.6459 4.10156 15.8959C3.35156 15.1459 2.75781 14.264 2.32031 13.2501C1.88281 12.2362 1.66406 11.1529 1.66406 10.0001C1.66406 8.8473 1.88281 7.76397 2.32031 6.75008C2.75781 5.73619 3.35156 4.85425 4.10156 4.10425C4.85156 3.35425 5.73351 2.7605 6.7474 2.323C7.76129 1.8855 8.84462 1.66675 9.9974 1.66675C11.1502 1.66675 12.2335 1.8855 13.2474 2.323C14.2613 2.7605 15.1432 3.35425 15.8932 4.10425C16.6432 4.85425 17.237 5.73619 17.6745 6.75008C18.112 7.76397 18.3307 8.8473 18.3307 10.0001C18.3307 11.1529 18.112 12.2362 17.6745 13.2501C17.237 14.264 16.6432 15.1459 15.8932 15.8959C15.1432 16.6459 14.2613 17.2397 13.2474 17.6772C12.2335 18.1147 11.1502 18.3334 9.9974 18.3334Z" fill="#D14343"/>
</svg>
