<?xml version="1.0" encoding="UTF-8"?>
<svg xmlns="http://www.w3.org/2000/svg" xmlns:xlink="http://www.w3.org/1999/xlink" width="16px" height="16px" viewBox="0 0 16 16" version="1.1">
<g id="surface1">
<path style=" stroke:none;fill-rule:nonzero;fill:rgb(91.37255%,27.843139%,27.843139%);fill-opacity:1;" d="M 10.769531 1.3125 C 9.898438 1.414062 8.972656 1.855469 8.265625 2.5 C 7.941406 2.796875 8.003906 2.789062 7.726562 2.53125 C 7.457031 2.28125 6.945312 1.929688 6.617188 1.765625 C 6.085938 1.496094 5.445312 1.34375 4.84375 1.34375 C 4.179688 1.34375 3.605469 1.488281 2.996094 1.804688 C 2.007812 2.3125 1.199219 3.261719 0.859375 4.296875 C 0.707031 4.769531 0.671875 5.011719 0.671875 5.59375 C 0.675781 6.082031 0.683594 6.179688 0.757812 6.480469 C 0.855469 6.871094 1.039062 7.328125 1.222656 7.640625 C 1.515625 8.140625 1.765625 8.425781 2.96875 9.640625 C 3.628906 10.3125 5.03125 11.726562 6.074219 12.78125 L 7.976562 14.703125 L 10.738281 11.921875 C 13.828125 8.816406 14.207031 8.421875 14.503906 8 C 14.871094 7.488281 15.136719 6.886719 15.269531 6.277344 C 15.347656 5.910156 15.347656 5.058594 15.269531 4.6875 C 14.953125 3.230469 13.894531 2.019531 12.503906 1.519531 C 12.003906 1.34375 11.285156 1.253906 10.769531 1.3125 Z M 10.769531 1.3125 "/>
</g>
</svg>
