<svg width="48" height="48" viewBox="0 0 48 48" fill="none" xmlns="http://www.w3.org/2000/svg">
<rect width="48" height="48" rx="12" fill="#1E1E1E"/>
<rect x="0.5" y="0.5" width="47" height="47" rx="11.5" stroke="#F8FAFC" stroke-opacity="0.1"/>
<path d="M15 20H28.2C29.8802 20 30.7202 20 31.362 20.327C31.9265 20.6146 32.3854 21.0735 32.673 21.638C33 22.2798 33 23.1198 33 24.8V26.2C33 27.8802 33 28.7202 32.673 29.362C32.3854 29.9265 31.9265 30.3854 31.362 30.673C30.7202 31 29.8802 31 28.2 31H19.8C18.1198 31 17.2798 31 16.638 30.673C16.0735 30.3854 15.6146 29.9265 15.327 29.362C15 28.7202 15 27.8802 15 26.2V20Z" fill="url(#paint0_linear_5_69)"/>
<path d="M15 20C15 19.0681 15 18.6022 15.1522 18.2346C15.3552 17.7446 15.7446 17.3552 16.2346 17.1522C16.6022 17 17.0681 17 18 17H20.3431C21.1606 17 21.5694 17 21.9369 17.1522C22.3045 17.3045 22.5935 17.5935 23.1716 18.1716L25 20H15V20Z" fill="url(#paint1_linear_5_69)"/>
<defs>
<linearGradient id="paint0_linear_5_69" x1="15" y1="25.5" x2="33" y2="25.5" gradientUnits="userSpaceOnUse">
<stop stop-color="#FFAA80"/>
<stop offset="1" stop-color="#FFFF80"/>
</linearGradient>
<linearGradient id="paint1_linear_5_69" x1="15" y1="18.5" x2="25" y2="18.5" gradientUnits="userSpaceOnUse">
<stop stop-color="#FFAA80"/>
<stop offset="1" stop-color="#FFFF80"/>
</linearGradient>
</defs>
</svg>
