<svg width="48" height="48" viewBox="0 0 48 48" fill="none" xmlns="http://www.w3.org/2000/svg">
<rect width="48" height="48" rx="12" fill="#1E1E1E"/>
<rect x="0.5" y="0.5" width="47" height="47" rx="11.5" stroke="#F8FAFC" stroke-opacity="0.1"/>
<path fill-rule="evenodd" clip-rule="evenodd" d="M26.8536 14.4826C25.3295 13.1713 23.0757 13.1713 21.5516 14.4826C20.8932 15.0491 20.0708 15.3897 19.2047 15.4547C17.1998 15.6052 15.6061 17.1989 15.4556 19.2039C15.3906 20.0699 15.0499 20.8924 14.4835 21.5507C13.1722 23.0748 13.1722 25.3287 14.4835 26.8528C15.0499 27.5111 15.3906 28.3336 15.4556 29.1996C15.6061 31.2046 17.1998 32.7983 19.2047 32.9487C20.0708 33.0137 20.8932 33.3544 21.5516 33.9208C23.0757 35.2322 25.3295 35.2322 26.8536 33.9208C27.512 33.3544 28.3344 33.0137 29.2005 32.9487C31.2054 32.7983 32.7991 31.2046 32.9496 29.1996C33.0146 28.3336 33.3553 27.5111 33.9217 26.8528C35.233 25.3287 35.233 23.0748 33.9217 21.5507C33.3553 20.8924 33.0146 20.0699 32.9496 19.2039C32.7991 17.1989 31.2054 15.6052 29.2005 15.4547C28.3344 15.3897 27.512 15.0491 26.8536 14.4826ZM29.5388 21.9543C29.9545 21.4925 29.917 20.7812 29.4552 20.3655C28.9934 19.9499 28.2821 19.9873 27.8664 20.4492L23.1909 25.6442L20.4228 23.3375C19.9455 22.9397 19.2361 23.0042 18.8384 23.4815C18.4406 23.9588 18.5051 24.6682 18.9824 25.066L22.3606 27.8811C22.9489 28.3714 23.8197 28.309 24.332 27.7397L29.5388 21.9543Z" fill="url(#paint0_linear_5_61)"/>
<defs>
<linearGradient id="paint0_linear_5_61" x1="13.5" y1="24.2017" x2="34.9052" y2="24.2017" gradientUnits="userSpaceOnUse">
<stop stop-color="#FFAA80"/>
<stop offset="1" stop-color="#FFFF80"/>
</linearGradient>
</defs>
</svg>
