<svg width="14" height="14" viewBox="0 0 14 14" fill="none" xmlns="http://www.w3.org/2000/svg">
<path fill-rule="evenodd" clip-rule="evenodd" d="M8.66462 1.44821C7.77555 0.683277 6.46081 0.683277 5.57174 1.44821C5.18771 1.77863 4.70794 1.97735 4.20275 2.01527C3.03319 2.10304 2.10353 3.0327 2.01576 4.20226C1.97784 4.70745 1.77912 5.18722 1.4487 5.57125C0.683766 6.46032 0.683766 7.77506 1.4487 8.66413C1.77912 9.04816 1.97784 9.52793 2.01576 10.0331C2.10353 11.2027 3.03319 12.1323 4.20275 12.2201C4.70794 12.258 5.18771 12.4568 5.57174 12.7872C6.46081 13.5521 7.77555 13.5521 8.66462 12.7872C9.04865 12.4568 9.52841 12.258 10.0336 12.2201C11.2032 12.1323 12.1328 11.2027 12.2206 10.0331C12.2585 9.52793 12.4572 9.04816 12.7877 8.66413C13.5526 7.77506 13.5526 6.46032 12.7877 5.57125C12.4572 5.18722 12.2585 4.70745 12.2206 4.20226C12.1328 3.0327 11.2032 2.10304 10.0336 2.01527C9.52841 1.97735 9.04865 1.77863 8.66462 1.44821ZM10.231 5.8067C10.4734 5.53731 10.4516 5.12237 10.1822 4.87991C9.9128 4.63745 9.49786 4.65929 9.25541 4.92869L6.52801 7.95913L4.91332 6.61355C4.63488 6.38152 4.22108 6.41914 3.98905 6.69757C3.75702 6.97601 3.79464 7.38981 4.07307 7.62184L6.04366 9.264C6.38688 9.55001 6.8948 9.51357 7.19368 9.18149L10.231 5.8067Z" fill="#FF5580"/>
</svg>
