<svg width="14" height="14" viewBox="0 0 14 14" fill="none" xmlns="http://www.w3.org/2000/svg">
<g clip-path="url(#clip0_4903_171096)">
<path fill-rule="evenodd" clip-rule="evenodd" d="M8.66462 1.4487C7.77555 0.683766 6.46081 0.683766 5.57174 1.4487C5.18771 1.77912 4.70794 1.97784 4.20275 2.01576C3.03319 2.10353 2.10353 3.03319 2.01576 4.20275C1.97784 4.70794 1.77912 5.18771 1.4487 5.57174C0.683766 6.46081 0.683766 7.77555 1.4487 8.66462C1.77912 9.04865 1.97784 9.52841 2.01576 10.0336C2.10353 11.2032 3.03319 12.1328 4.20275 12.2206C4.70794 12.2585 5.18771 12.4572 5.57174 12.7877C6.46081 13.5526 7.77555 13.5526 8.66462 12.7877C9.04865 12.4572 9.52842 12.2585 10.0336 12.2206C11.2032 12.1328 12.1328 11.2032 12.2206 10.0336C12.2585 9.52841 12.4572 9.04865 12.7877 8.66462C13.5526 7.77555 13.5526 6.46081 12.7877 5.57174C12.4572 5.18771 12.2585 4.70794 12.2206 4.20275C12.1328 3.03319 11.2032 2.10353 10.0336 2.01576C9.52841 1.97784 9.04865 1.77912 8.66462 1.4487ZM10.231 5.80719C10.4734 5.53779 10.4516 5.12285 10.1822 4.8804C9.91281 4.63794 9.49786 4.65978 9.25541 4.92918L6.52801 7.95962L4.91332 6.61404C4.63488 6.38201 4.22108 6.41963 3.98905 6.69806C3.75702 6.97649 3.79464 7.3903 4.07307 7.62233L6.04366 9.26448C6.38688 9.5505 6.8948 9.51406 7.19368 9.18198L10.231 5.80719Z" fill="#FF5580"/>
</g>
<defs>
<clipPath id="clip0_4903_171096">
<rect width="14" height="14" fill="white"/>
</clipPath>
</defs>

</svg>
