<svg width="17" height="20" viewBox="0 0 17 20" fill="none" xmlns="http://www.w3.org/2000/svg">
<circle cx="8.5" cy="9.5" r="8" stroke="#FF5580"/>
<path d="M5.024 6.6C4.98133 6.32267 4.96 6.04 4.96 5.752C4.97067 5.464 5.024 5.18133 5.12 4.904C5.23733 4.54133 5.42933 4.22133 5.696 3.944C5.96267 3.66667 6.26667 3.448 6.608 3.288C6.97067 3.11733 7.33867 3 7.712 2.936C8.096 2.86133 8.46933 2.84533 8.832 2.888C9.20533 2.93067 9.56267 3.02667 9.904 3.176C10.256 3.31467 10.5867 3.51733 10.896 3.784C11.2267 4.072 11.472 4.408 11.632 4.792C11.8027 5.16533 11.8933 5.55467 11.904 5.96C11.9253 6.36533 11.8773 6.77067 11.76 7.176C11.6533 7.57067 11.488 7.93867 11.264 8.28C11.264 8.28 11.2587 8.29067 11.248 8.312C11.0667 8.55733 10.8587 8.78133 10.624 8.984C10.3893 9.176 10.1707 9.384 9.968 9.608C9.73333 9.85333 9.59467 10.104 9.552 10.36C9.50933 10.6053 9.46667 10.8827 9.424 11.192C9.392 11.4907 9.312 11.752 9.184 11.976C9.06667 12.1893 8.84267 12.2907 8.512 12.28C8.288 12.2693 8.11733 12.2 8 12.072C7.89333 11.9333 7.81333 11.7733 7.76 11.592C7.71733 11.4 7.70133 11.2027 7.712 11C7.72267 10.7867 7.73867 10.6 7.76 10.44C7.824 10.0667 7.94133 9.71467 8.112 9.384C8.28267 9.04267 8.49067 8.72267 8.736 8.424C8.87467 8.264 9.01333 8.12 9.152 7.992C9.29067 7.85333 9.41867 7.70933 9.536 7.56C9.65333 7.41067 9.75467 7.25067 9.84 7.08C9.92533 6.90933 9.984 6.712 10.016 6.488C10.048 6.28533 10.032 6.08267 9.968 5.88C9.904 5.66667 9.808 5.48 9.68 5.32C9.552 5.14933 9.39733 5.01067 9.216 4.904C9.03467 4.78667 8.83733 4.72267 8.624 4.712C8.432 4.70133 8.22933 4.728 8.016 4.792C7.80267 4.84533 7.60533 4.936 7.424 5.064C7.24267 5.18133 7.09333 5.32533 6.976 5.496C6.86933 5.66667 6.82133 5.85867 6.832 6.072C6.84267 6.2 6.864 6.33333 6.896 6.472C6.93867 6.6 6.96533 6.728 6.976 6.856C6.99733 6.97333 6.992 7.09067 6.96 7.208C6.93867 7.32533 6.86933 7.43733 6.752 7.544C6.56 7.72533 6.368 7.816 6.176 7.816C5.984 7.80533 5.808 7.74133 5.648 7.624C5.488 7.50667 5.34933 7.35733 5.232 7.176C5.12533 6.984 5.056 6.792 5.024 6.6ZM9.632 14.584C9.632 14.8933 9.51467 15.1707 9.28 15.416C9.056 15.6507 8.79467 15.768 8.496 15.768C8.208 15.768 7.952 15.6507 7.728 15.416C7.504 15.16 7.392 14.8827 7.392 14.584C7.392 14.2533 7.504 13.976 7.728 13.752C7.952 13.5067 8.208 13.384 8.496 13.384C8.79467 13.384 9.056 13.5067 9.28 13.752C9.51467 13.9867 9.632 14.264 9.632 14.584Z" fill="#FF5580"/>
</svg>
