<svg width="20" height="20" viewBox="0 0 20 20" fill="none" xmlns="http://www.w3.org/2000/svg">
<path d="M8.83073 11.5001L7.03906 9.70842C6.88629 9.55564 6.69184 9.47925 6.45573 9.47925C6.21962 9.47925 6.02517 9.55564 5.8724 9.70842C5.71962 9.86119 5.64323 10.0556 5.64323 10.2917C5.64323 10.5279 5.71962 10.7223 5.8724 10.8751L8.2474 13.2501C8.41406 13.4167 8.60851 13.5001 8.83073 13.5001C9.05295 13.5001 9.2474 13.4167 9.41406 13.2501L14.1224 8.54175C14.2752 8.38897 14.3516 8.19453 14.3516 7.95842C14.3516 7.7223 14.2752 7.52786 14.1224 7.37508C13.9696 7.2223 13.7752 7.14592 13.5391 7.14592C13.303 7.14592 13.1085 7.2223 12.9557 7.37508L8.83073 11.5001ZM9.9974 18.3334C8.84462 18.3334 7.76129 18.1147 6.7474 17.6772C5.73351 17.2397 4.85156 16.6459 4.10156 15.8959C3.35156 15.1459 2.75781 14.264 2.32031 13.2501C1.88281 12.2362 1.66406 11.1529 1.66406 10.0001C1.66406 8.8473 1.88281 7.76397 2.32031 6.75008C2.75781 5.73619 3.35156 4.85425 4.10156 4.10425C4.85156 3.35425 5.73351 2.7605 6.7474 2.323C7.76129 1.8855 8.84462 1.66675 9.9974 1.66675C11.1502 1.66675 12.2335 1.8855 13.2474 2.323C14.2613 2.7605 15.1432 3.35425 15.8932 4.10425C16.6432 4.85425 17.237 5.73619 17.6745 6.75008C18.112 7.76397 18.3307 8.8473 18.3307 10.0001C18.3307 11.1529 18.112 12.2362 17.6745 13.2501C17.237 14.264 16.6432 15.1459 15.8932 15.8959C15.1432 16.6459 14.2613 17.2397 13.2474 17.6772C12.2335 18.1147 11.1502 18.3334 9.9974 18.3334Z" fill="#4CBFA4"/>
</svg>
